<?xml version="1.0" encoding="UTF-8" standalone="no"?>
<!-- Created with Inkscape (http://www.inkscape.org/) -->

<svg
   xmlns:dc="http://purl.org/dc/elements/1.1/"
   xmlns:cc="http://creativecommons.org/ns#"
   xmlns:rdf="http://www.w3.org/1999/02/22-rdf-syntax-ns#"
   xmlns:svg="http://www.w3.org/2000/svg"
   xmlns="http://www.w3.org/2000/svg"
   xmlns:sodipodi="http://sodipodi.sourceforge.net/DTD/sodipodi-0.dtd"
   xmlns:inkscape="http://www.inkscape.org/namespaces/inkscape"
   width="240mm"
   height="75mm"
   viewBox="0 0 850.39367 265.74803"
   id="svg2"
   version="1.1"
   inkscape:version="0.91 r13725"
   sodipodi:docname="somente Pan Til Mobius.svg">
  <defs
     id="defs4" />
  <sodipodi:namedview
     id="base"
     pagecolor="#ffffff"
     bordercolor="#666666"
     borderopacity="1.0"
     inkscape:pageopacity="0.0"
     inkscape:pageshadow="2"
     inkscape:zoom="0.70710678"
     inkscape:cx="477.79356"
     inkscape:cy="194.04298"
     inkscape:document-units="mm"
     inkscape:current-layer="layer1"
     showgrid="false"
     inkscape:window-width="1366"
     inkscape:window-height="705"
     inkscape:window-x="-9"
     inkscape:window-y="-9"
     inkscape:window-maximized="1" />
  <metadata
     id="metadata7">
    <rdf:RDF>
      <cc:Work
         rdf:about="">
        <dc:format>image/svg+xml</dc:format>
        <dc:type
           rdf:resource="http://purl.org/dc/dcmitype/StillImage" />
        <dc:title></dc:title>
      </cc:Work>
    </rdf:RDF>
  </metadata>
  <g
     inkscape:label="Layer 1"
     inkscape:groupmode="layer"
     id="layer1"
     transform="translate(0,-786.61459)">
    <flowRoot
       xml:space="preserve"
       id="flowRoot4502"
       style="font-style:normal;font-weight:normal;font-size:5px;line-height:125%;font-family:sans-serif;letter-spacing:0px;word-spacing:0px;fill:#000000;fill-opacity:1;stroke:none;stroke-width:1px;stroke-linecap:butt;stroke-linejoin:miter;stroke-opacity:1"><flowRegion
         id="flowRegion4504"><rect
           id="rect4506"
           width="226.2393"
           height="99.811462"
           x="-283.46454"
           y="83.525642"
           style="font-size:5px" /></flowRegion><flowPara
         id="flowPara4508" /></flowRoot>    <g
       id="g4790"
       transform="translate(173.94827,576.99914)">
      <path
         id="path4262-8"
         d="m 113.66071,228.09644 a 9.557783,10.219494 0 0 0 -0.5957,0.0254 9.557783,10.219494 0 0 0 -0.94727,0.125 9.557783,10.219494 0 0 0 -0.93164,0.2207 9.557783,10.219494 0 0 0 -0.90625,0.32422 9.557783,10.219494 0 0 0 -0.87109,0.41797 9.557783,10.219494 0 0 0 -0.83008,0.50781 9.557783,10.219494 0 0 0 -0.77734,0.59375 9.557783,10.219494 0 0 0 -0.7168,0.67383 9.557783,10.219494 0 0 0 -0.65039,0.74805 9.557783,10.219494 0 0 0 -0.58008,0.81445 9.557783,10.219494 0 0 0 -0.49805,0.86914 9.557783,10.219494 0 0 0 -0.29883,0.65821 l -0.17968,0 -26.1211,80.73242 -34.95898,108.03906 69.91601,0 69.91797,0 -34.95898,-108.03906 -26.12305,-80.73242 -0.125,0 a 9.557783,10.219494 0 0 0 -0.20117,-0.47071 9.557783,10.219494 0 0 0 -0.48047,-0.88086 9.557783,10.219494 0 0 0 -0.56445,-0.82812 9.557783,10.219494 0 0 0 -0.63672,-0.76172 9.557783,10.219494 0 0 0 -0.70313,-0.68945 9.557783,10.219494 0 0 0 -0.76562,-0.61133 9.557783,10.219494 0 0 0 -0.81836,-0.52539 9.557783,10.219494 0 0 0 -0.86523,-0.43555 9.557783,10.219494 0 0 0 -0.90039,-0.34375 9.557783,10.219494 0 0 0 -0.92579,-0.24414 9.557783,10.219494 0 0 0 -0.94726,-0.14453 9.557783,10.219494 0 0 0 -0.95508,-0.043 z"
         style="fill:none;fill-opacity:1;stroke:#000000;stroke-width:0.08858268;stroke-miterlimit:4;stroke-dasharray:none;stroke-opacity:1"
         inkscape:connector-curvature="0" />
      <path
         id="path4262-6-5"
         d="m 113.67962,278.14186 a 6.1934434,6.6222321 0 0 0 -0.38602,0.0165 6.1934434,6.6222321 0 0 0 -0.61383,0.081 6.1934434,6.6222321 0 0 0 -0.6037,0.14302 6.1934434,6.6222321 0 0 0 -0.58725,0.21008 6.1934434,6.6222321 0 0 0 -0.56447,0.27085 6.1934434,6.6222321 0 0 0 -0.53789,0.32907 6.1934434,6.6222321 0 0 0 -0.50371,0.38475 6.1934434,6.6222321 0 0 0 -0.46449,0.43663 6.1934434,6.6222321 0 0 0 -0.42146,0.48474 6.1934434,6.6222321 0 0 0 -0.37588,0.52776 6.1934434,6.6222321 0 0 0 -0.32274,0.5632 6.1934434,6.6222321 0 0 0 -0.19364,0.42652 l -0.11644,0 -16.92647,52.31461 -22.65342,70.00932 45.30558,0 45.30684,0 -22.65342,-70.00932 -16.92774,-52.31461 -0.081,0 a 6.1934434,6.6222321 0 0 0 -0.13035,-0.30502 6.1934434,6.6222321 0 0 0 -0.31135,-0.57079 6.1934434,6.6222321 0 0 0 -0.36576,-0.53663 6.1934434,6.6222321 0 0 0 -0.41259,-0.49359 6.1934434,6.6222321 0 0 0 -0.45563,-0.44677 6.1934434,6.6222321 0 0 0 -0.49612,-0.39614 6.1934434,6.6222321 0 0 0 -0.5303,-0.34045 6.1934434,6.6222321 0 0 0 -0.56067,-0.28223 6.1934434,6.6222321 0 0 0 -0.58345,-0.22275 6.1934434,6.6222321 0 0 0 -0.59992,-0.1582 6.1934434,6.6222321 0 0 0 -0.61382,-0.0937 6.1934434,6.6222321 0 0 0 -0.61889,-0.0279 z"
         style="fill:none;fill-opacity:1;stroke:#000000;stroke-width:0.08858268;stroke-miterlimit:4;stroke-dasharray:none;stroke-opacity:1"
         inkscape:connector-curvature="0" />
      <path
         id="path4406-3"
         d="m 173.37409,423.0284 c 0,-9.98133 0,-10.11621 0,-10.11621 l -34.43347,0 0,9.91389"
         style="fill:none;fill-rule:evenodd;stroke:#000000;stroke-width:0.08858268;stroke-linecap:butt;stroke-linejoin:miter;stroke-miterlimit:4;stroke-dasharray:none;stroke-opacity:1"
         inkscape:connector-curvature="0" />
      <path
         inkscape:connector-curvature="0"
         id="path4406-9-2"
         d="m 54.05475,423.0851 c 0,-9.98133 0,-10.11621 0,-10.11621 l 34.43347,0 0,9.91389"
         style="fill:none;fill-rule:evenodd;stroke:#000000;stroke-width:0.08858268;stroke-linecap:butt;stroke-linejoin:miter;stroke-miterlimit:4;stroke-dasharray:none;stroke-opacity:1" />
      <circle
         r="5.4194908"
         cy="256.94919"
         cx="113.71443"
         id="path4492"
         style="fill:none;fill-opacity:1;stroke:#000000;stroke-width:0.08858268;stroke-miterlimit:4;stroke-dasharray:none;stroke-opacity:1" />
      <text
         transform="matrix(0.30901699,-0.95105652,0.95105652,0.30901699,0,0)"
         sodipodi:linespacing="125%"
         id="text4518"
         y="184.43005"
         x="-322.99738"
         style="font-style:normal;font-weight:normal;font-size:10px;line-height:125%;font-family:sans-serif;letter-spacing:3.03000021px;word-spacing:0px;fill:#0000ff;fill-opacity:1;stroke:#0000ff;stroke-width:0.70866144;stroke-linecap:butt;stroke-linejoin:miter;stroke-miterlimit:4;stroke-dasharray:none;stroke-opacity:1"
         xml:space="preserve"><tspan
           y="184.43005"
           x="-322.99738"
           id="tspan4520"
           sodipodi:role="line">PARAFUSO</tspan></text>
    </g>
    <g
       id="g4640"
       style="stroke-width:0.08858275;stroke-miterlimit:4;stroke-dasharray:none"
       transform="matrix(0,1,-0.99999851,0,515.64635,703.22495)">
      <path
         inkscape:connector-curvature="0"
         id="rect4175"
         d="m 138.80701,349.24773 0,11.00221 -10.66866,0 0,118.81632 10.72527,0 0,10.75516 34.23538,0 0,-10.75516 50.65319,0 0,10.75516 34.23537,0 0,-10.75516 10.72332,0 0,-118.81632 -10.66866,0 0,-10.72208 -34.23537,0 0,10.72208 -50.76446,0 0,-11.00221 -34.23538,0 z"
         style="fill:none;fill-opacity:1;stroke:#000000;stroke-width:0.08858275;stroke-miterlimit:4;stroke-dasharray:none;stroke-opacity:1" />
      <path
         transform="matrix(0.85663196,0,0,0.96149548,33.548857,253.09352)"
         inkscape:transform-center-y="0.012846702"
         inkscape:transform-center-x="0.27893593"
         d="m 194.05012,165.45422 1.47428,1.5705 2.1401,0.24487 0.49151,2.09724 1.73095,1.28212 -0.62296,2.06201 0.85798,1.97582 -1.5705,1.47428 -0.24487,2.1401 -2.09724,0.49151 -1.28211,1.73094 -2.06202,-0.62295 -1.97582,0.85798 -1.47428,-1.5705 -2.1401,-0.24487 -0.49151,-2.09724 -1.73094,-1.28212 0.62295,-2.06201 -0.85798,-1.97582 1.5705,-1.47428 0.24488,-2.1401 2.09723,-0.49151 1.28212,-1.73094 2.06201,0.62295 z"
         inkscape:randomized="0"
         inkscape:rounded="0"
         inkscape:flatsided="false"
         sodipodi:arg2="-1.1053384"
         sodipodi:arg1="-1.3671378"
         sodipodi:r2="6.8057294"
         sodipodi:r1="7.8136964"
         sodipodi:cy="173.10643"
         sodipodi:cx="192.46977"
         sodipodi:sides="12"
         id="path4454-8"
         style="fill:none;fill-opacity:1;stroke:#000000;stroke-width:0.09760642;stroke-miterlimit:4;stroke-dasharray:none;stroke-opacity:1"
         sodipodi:type="star" />
    </g>
    <g
       id="g4218"
       transform="translate(-45.254834,121.62237)">
      <path
         inkscape:connector-curvature="0"
         id="rect4295-9-0"
         d="m 564.11106,780.3368 -10.2763,0 0,27.28 10.2763,0 0,-27.28 z"
         style="fill:none;fill-opacity:1;stroke:#000000;stroke-width:0.08858268;stroke-miterlimit:4;stroke-dasharray:none;stroke-opacity:1" />
      <g
         id="g4215">
        <rect
           style="fill:none;fill-opacity:1;stroke:#000000;stroke-width:0.08858268;stroke-miterlimit:4;stroke-dasharray:none;stroke-opacity:1"
           id="rect4644"
           width="158.45734"
           height="118.62316"
           x="717.22729"
           y="445.81613"
           transform="matrix(0,1,1,0,0,0)" />
      </g>
      <path
         transform="matrix(0,0.30870145,-0.30664513,0,630.11271,606.05832)"
         d="m 463.5,435.86221 c -2.31569,1.57137 -6.68349,-1.07828 -9.32697,-0.1598 -2.64349,0.91847 -4.42742,5.70552 -7.21855,5.90851 -2.79113,0.203 -5.24893,-4.27556 -7.99749,-4.80188 -2.74856,-0.52632 -6.68701,2.72742 -9.2057,1.50766 -2.51869,-1.21977 -2.40793,-6.32721 -4.52509,-8.1573 -2.11717,-1.83009 -7.15484,-0.98149 -8.7262,-3.29719 -1.57136,-2.31569 1.07828,-6.68348 0.1598,-9.32697 -0.91847,-2.64349 -5.70552,-4.42741 -5.90851,-7.21854 -0.203,-2.79113 4.27556,-5.24893 4.80188,-7.9975 0.52632,-2.74856 -2.72742,-6.68701 -1.50765,-9.2057 1.21976,-2.51869 6.32721,-2.40792 8.15729,-4.52509 1.83009,-2.11717 0.9815,-7.15483 3.29719,-8.7262 2.31569,-1.57136 6.68349,1.07828 9.32697,0.15981 2.64349,-0.91848 4.42742,-5.70552 7.21855,-5.90852 2.79113,-0.20299 5.24893,4.27556 7.99749,4.80188 2.74856,0.52632 6.68701,-2.72742 9.2057,-1.50765 2.51869,1.21977 2.40793,6.32721 4.52509,8.1573 2.11717,1.83009 7.15484,0.98149 8.7262,3.29718 1.57136,2.3157 -1.07828,6.68349 -0.1598,9.32698 0.91847,2.64348 5.70552,4.42741 5.90851,7.21854 0.203,2.79113 -4.27556,5.24893 -4.80188,7.99749 -0.52632,2.74857 2.72742,6.68702 1.50765,9.2057 -1.21976,2.51869 -6.32721,2.40793 -8.15729,4.5251 -1.83009,2.11716 -0.9815,7.15483 -3.29719,8.72619 z"
         inkscape:randomized="0"
         inkscape:rounded="0.3"
         inkscape:flatsided="false"
         sodipodi:arg2="1.2363966"
         sodipodi:arg1="0.97459719"
         sodipodi:r2="29.472767"
         sodipodi:r1="33.837849"
         sodipodi:cy="407.86221"
         sodipodi:cx="444.5"
         sodipodi:sides="12"
         id="path4714"
         style="fill:none;fill-opacity:1;stroke:#000000;stroke-width:0.28791311;stroke-miterlimit:4;stroke-dasharray:none;stroke-opacity:1"
         sodipodi:type="star" />
      <rect
         transform="matrix(0,1,-1,0,0,0)"
         y="-525.03851"
         x="778.87042"
         height="76.740448"
         width="76.740562"
         id="rect4224"
         style="fill:#00009b;fill-opacity:1;stroke:#00009b;stroke-width:0.70866144;stroke-miterlimit:4;stroke-dasharray:none;stroke-opacity:1" />
    </g>
    <g
       id="g4806"
       transform="translate(523.25901,377.59502)">
      <path
         id="path4262"
         d="m 107.28094,441.8916 a 9.557783,10.219494 0 0 0 -0.5957,0.0254 9.557783,10.219494 0 0 0 -0.94727,0.125 9.557783,10.219494 0 0 0 -0.93164,0.2207 9.557783,10.219494 0 0 0 -0.90625,0.32422 9.557783,10.219494 0 0 0 -0.87109,0.41797 9.557783,10.219494 0 0 0 -0.83008,0.50781 9.557783,10.219494 0 0 0 -0.77734,0.59375 9.557783,10.219494 0 0 0 -0.7168,0.67383 9.557783,10.219494 0 0 0 -0.65039,0.74805 9.557783,10.219494 0 0 0 -0.58008,0.81445 9.557783,10.219494 0 0 0 -0.49805,0.86914 9.557783,10.219494 0 0 0 -0.29883,0.65821 l -0.17968,0 -26.1211,80.73242 -34.95898,108.03906 69.91601,0 69.91797,0 -34.95898,-108.03906 -26.12305,-80.73242 -0.125,0 a 9.557783,10.219494 0 0 0 -0.20117,-0.47071 9.557783,10.219494 0 0 0 -0.48047,-0.88086 9.557783,10.219494 0 0 0 -0.56445,-0.82812 9.557783,10.219494 0 0 0 -0.63672,-0.76172 9.557783,10.219494 0 0 0 -0.70313,-0.68945 9.557783,10.219494 0 0 0 -0.76562,-0.61133 9.557783,10.219494 0 0 0 -0.81836,-0.52539 9.557783,10.219494 0 0 0 -0.86523,-0.43555 9.557783,10.219494 0 0 0 -0.90039,-0.34375 9.557783,10.219494 0 0 0 -0.92579,-0.24414 9.557783,10.219494 0 0 0 -0.94726,-0.14453 9.557783,10.219494 0 0 0 -0.95508,-0.043 z"
         style="fill:none;fill-opacity:1;stroke:#000000;stroke-width:0.08858268;stroke-miterlimit:4;stroke-dasharray:none;stroke-opacity:1"
         inkscape:connector-curvature="0" />
      <path
         id="path4262-6"
         d="m 107.29985,491.93702 a 6.1934434,6.6222321 0 0 0 -0.38602,0.0165 6.1934434,6.6222321 0 0 0 -0.61383,0.081 6.1934434,6.6222321 0 0 0 -0.6037,0.14302 6.1934434,6.6222321 0 0 0 -0.58725,0.21008 6.1934434,6.6222321 0 0 0 -0.56447,0.27085 6.1934434,6.6222321 0 0 0 -0.53789,0.32907 6.1934434,6.6222321 0 0 0 -0.50371,0.38475 6.1934434,6.6222321 0 0 0 -0.46449,0.43663 6.1934434,6.6222321 0 0 0 -0.42146,0.48474 6.1934434,6.6222321 0 0 0 -0.37588,0.52776 6.1934434,6.6222321 0 0 0 -0.32274,0.5632 6.1934434,6.6222321 0 0 0 -0.19364,0.42652 l -0.11644,0 -16.92647,52.31461 -22.65342,70.00932 45.30558,0 45.30684,0 -22.65342,-70.00932 -16.92774,-52.31461 -0.081,0 a 6.1934434,6.6222321 0 0 0 -0.13035,-0.30502 6.1934434,6.6222321 0 0 0 -0.31135,-0.57079 6.1934434,6.6222321 0 0 0 -0.36576,-0.53663 6.1934434,6.6222321 0 0 0 -0.41259,-0.49359 6.1934434,6.6222321 0 0 0 -0.45563,-0.44677 6.1934434,6.6222321 0 0 0 -0.49612,-0.39614 6.1934434,6.6222321 0 0 0 -0.5303,-0.34045 6.1934434,6.6222321 0 0 0 -0.56067,-0.28223 6.1934434,6.6222321 0 0 0 -0.58345,-0.22275 6.1934434,6.6222321 0 0 0 -0.59992,-0.1582 6.1934434,6.6222321 0 0 0 -0.61382,-0.0937 6.1934434,6.6222321 0 0 0 -0.61889,-0.0279 z"
         style="fill:none;fill-opacity:1;stroke:#000000;stroke-width:0.08858268;stroke-miterlimit:4;stroke-dasharray:none;stroke-opacity:1"
         inkscape:connector-curvature="0" />
      <path
         id="path4406"
         d="m 166.99432,636.82399 c 0,-9.98133 0,-10.11621 0,-10.11621 l -34.43347,0 0,9.91389"
         style="fill:none;fill-rule:evenodd;stroke:#000000;stroke-width:0.08858268;stroke-linecap:butt;stroke-linejoin:miter;stroke-miterlimit:4;stroke-dasharray:none;stroke-opacity:1"
         inkscape:connector-curvature="0" />
      <path
         inkscape:connector-curvature="0"
         id="path4406-9"
         d="m 47.67498,636.88068 c 0,-9.98133 0,-10.11621 0,-10.11621 l 34.43347,0 0,9.91389"
         style="fill:none;fill-rule:evenodd;stroke:#000000;stroke-width:0.08858268;stroke-linecap:butt;stroke-linejoin:miter;stroke-miterlimit:4;stroke-dasharray:none;stroke-opacity:1" />
      <path
         transform="matrix(0.85704693,0,0,0.85138102,-57.620977,323.47403)"
         inkscape:transform-center-y="0.011374892"
         inkscape:transform-center-x="0.27907087"
         d="m 194.05012,165.45422 1.47428,1.5705 2.1401,0.24487 0.49151,2.09724 1.73095,1.28212 -0.62296,2.06201 0.85798,1.97582 -1.5705,1.47428 -0.24487,2.1401 -2.09724,0.49151 -1.28211,1.73094 -2.06202,-0.62295 -1.97582,0.85798 -1.47428,-1.5705 -2.1401,-0.24487 -0.49151,-2.09724 -1.73094,-1.28212 0.62295,-2.06201 -0.85798,-1.97582 1.5705,-1.47428 0.24488,-2.1401 2.09723,-0.49151 1.28212,-1.73094 2.06201,0.62295 z"
         inkscape:randomized="0"
         inkscape:rounded="0"
         inkscape:flatsided="false"
         sodipodi:arg2="-1.1053384"
         sodipodi:arg1="-1.3671378"
         sodipodi:r2="6.8057294"
         sodipodi:r1="7.8136964"
         sodipodi:cy="173.10643"
         sodipodi:cx="192.46977"
         sodipodi:sides="12"
         id="path4454"
         style="fill:none;fill-opacity:1;stroke:#000000;stroke-width:0.10370138;stroke-miterlimit:4;stroke-dasharray:none;stroke-opacity:1"
         sodipodi:type="star" />
      <text
         transform="matrix(0.30901699,-0.95105652,0.95105652,0.30901699,0,0)"
         sodipodi:linespacing="125%"
         id="text4514"
         y="245.95537"
         x="-528.98242"
         style="font-style:normal;font-weight:normal;font-size:12.5px;line-height:125%;font-family:sans-serif;letter-spacing:2.99999905px;word-spacing:0px;fill:#0000ff;fill-opacity:1;stroke:#0000ff;stroke-width:0.70866144;stroke-linecap:butt;stroke-linejoin:miter;stroke-miterlimit:4;stroke-dasharray:none;stroke-opacity:1"
         xml:space="preserve"><tspan
           y="245.95537"
           x="-528.98242"
           id="tspan4516"
           sodipodi:role="line">SERVO</tspan></text>
      <g
         style="stroke-width:0.08858268;stroke-miterlimit:4;stroke-dasharray:none"
         transform="translate(-349.59936,100.63013)"
         id="g4286">
        <path
           inkscape:connector-curvature="0"
           style="fill:none;fill-opacity:1;stroke:#000000;stroke-width:0.08858268;stroke-miterlimit:4;stroke-dasharray:none;stroke-opacity:1"
           d="m 509.96484,346.27148 a 13.40352,8.6686687 0 0 0 -12.68945,6.19336 l -0.0586,-0.002 0,0.12109 a 13.40352,8.6686687 0 0 0 -0.0625,0.125 l 0.0625,0.002 0,42.20703 26.03515,0 0,-41.54297 0.0371,0 a 13.40352,8.6686687 0 0 0 -0.0371,-0.11523 l 0,-0.22071 -0.0723,-0.002 a 13.40352,8.6686687 0 0 0 -12.54688,-6.75977 13.40352,8.6686687 0 0 0 -0.66797,-0.006 z"
           id="rect4295-9-0-2" />
        <circle
           style="fill:none;fill-opacity:1;stroke:#000000;stroke-width:0.08858268;stroke-miterlimit:4;stroke-dasharray:none;stroke-opacity:1"
           id="path4264"
           cx="510.23413"
           cy="364.18219"
           r="4.7981572" />
      </g>
    </g>
  </g>
</svg>
